# xmcd
#
# Track frame offsets: 
#        150
#        11682
#        26012
#        42567
#        54492
#        67015
#        83442
#        97092
#        107742
#        118620
#        134877
#        148242
#        160677
#        173032
#        185407
#        199317
#        214392
#        225992
#        237177
#        249650
#        261265
#        271842
#        287700
#        299870
#        316020
#        329355
#
# Disc length: 4606 seconds
#
# Revision: 1
# Processed by: cddbd v1.5.2PL0 Copyright (c) Steve Scherf et al.
# Submitted via: ExactAudioCopy v0.99pb3
#
DISCID=9111fc1a
DTITLE=Hazlewood, Lee - The Cowboy And The Ladies
DYEAR=1995
DGENRE=Rock
TTITLE0=Greenwich Village Folksong Salesman
TTITLE1=Elusive Dreams
TTITLE2=Summer Wine
TTITLE3=Sundown, Sundown
TTITLE4=Jackson
TTITLE5=Some Velvet Morning
TTITLE6=Lady Bird
TTITLE7=Oh Lonesome Me
TTITLE8=The Girls In Paris
TTITLE9=Sand
TTITLE10=I'll Never Fall In Love Again
TTITLE11=Alone
TTITLE12=Califia (Stone Rider)
TTITLE13=Old Milwaukee
TTITLE14=Leather and Lace
TTITLE15=Hey Cowboy
TTITLE16=Chico
TTITLE17=Am I That Easy To Forget
TTITLE18=Walk On Out Of My Mind
TTITLE19=Victims Of The Night
TTITLE20=Break My Mind
TTITLE21=Sweet Thing
TTITLE22=Dark End Of The Street
TTITLE23=Friendship Train
TTITLE24=Paris Summer
TTITLE25=Down From Dover
EXTD=
EXTT0=
EXTT1=
EXTT2=
EXTT3=
EXTT4=
EXTT5=
EXTT6=
EXTT7=
EXTT8=
EXTT9=
EXTT10=
EXTT11=
EXTT12=
EXTT13=
EXTT14=
EXTT15=
EXTT16=
EXTT17=
EXTT18=
EXTT19=
EXTT20=
EXTT21=
EXTT22=
EXTT23=
EXTT24=
EXTT25=
PLAYORDER=
